<svg version="1.1" id="Layer_1" xmlns="http://www.w3.org/2000/svg" xmlns:xlink="http://www.w3.org/1999/xlink" x="0px" y="0px" viewBox="0 0 500 500" style="width: 166px;" xml:space="preserve" data-imageid="product-manager-37" imageName="Product Manager" class="illustrations_image">
<style type="text/css">
	.st0_product-manager-37{fill:#FFFFFF;}
	.st1_product-manager-37{fill:#D1D3D4;}
	.st2_product-manager-37{fill:none;}
	.st3_product-manager-37{fill:#231F20;}
	.st4_product-manager-37{fill:#68E1FD;}
</style>
<g id="Chart_product-manager-37">
	<polygon class="st0_product-manager-37" points="230.6,84.7 422,121.4 422,344.2 230.6,307.5 &#9;"/>
	<path class="st1_product-manager-37" d="M422,344.9h-0.1l-191.4-36.7c-0.3-0.1-0.6-0.4-0.6-0.7V84.7c0-0.2,0.1-0.4,0.2-0.5c0.2-0.1,0.4-0.2,0.6-0.1&#10;&#9;&#9;l191.4,36.7c0.3,0.1,0.6,0.4,0.6,0.7v222.8c0,0.2-0.1,0.4-0.2,0.5C422.3,344.9,422.2,344.9,422,344.9z M231.3,306.9l190,36.5V122&#10;&#9;&#9;l-190-36.5L231.3,306.9z"/>
	<path class="st1_product-manager-37" d="M315.3,299.1c-0.3,0-0.6-0.2-0.7-0.6c-1.1-5.4-0.2-10.6,0.7-15.5c1.5-7.5,3.4-16,8.5-22.3&#10;&#9;&#9;c5.6-6.9,14.3-9.5,22.2-6.8c0.4,0.1,0.6,0.5,0.4,0.9c0,0,0,0,0,0c-0.1,0.4-0.5,0.6-0.9,0.4c0,0,0,0,0,0c-7.4-2.5-15.5,0-20.7,6.4&#10;&#9;&#9;c-4.9,6-6.8,14.4-8.2,21.7c-0.9,4.8-1.7,9.9-0.7,15c0.1,0.4-0.1,0.7-0.5,0.8c0,0,0,0,0,0L315.3,299.1z"/>
	<path class="st1_product-manager-37" d="M355.2,256.5c-2.1-0.1-4.2-0.3-6.2-0.7c-4.3-0.7-8.4-2-12.4-3.7c-8.3-3.9-15.4-11.9-19.1-21.2&#10;&#9;&#9;c-3.3-8.4-3.8-16.9-4.3-25.1c0-0.4,0.3-0.7,0.7-0.7c0.4,0,0.7,0.3,0.7,0.7c0.5,8.1,1,16.4,4.2,24.7c3.6,9.1,10.4,16.7,18.4,20.5&#10;&#9;&#9;c3.8,1.7,7.9,2.9,12,3.6c2.7,0.7,5.5,0.8,8.3,0.5c0.4-0.1,0.7,0.2,0.8,0.5c0,0,0,0,0,0c0.1,0.4-0.2,0.7-0.5,0.8c0,0,0,0,0,0&#10;&#9;&#9;C357,256.4,356.1,256.4,355.2,256.5z"/>
	<path class="st1_product-manager-37" d="M325.3,166.9L325.3,166.9c-0.4,0-0.7-0.3-0.7-0.7c0,0,0,0,0,0c0-6.6,0.8-13.2,2.4-19.6&#10;&#9;&#9;c0.9-3.6,2.2-7.7,5.2-10.4c5.2-4.6,13.3-3.6,21.2-2.1c1.5,0.3,3.5,0.8,4.4,2.6c0.2,0.4,0,0.8-0.4,0.9c-0.4,0.2-0.8,0-0.9-0.4l0,0&#10;&#9;&#9;c-0.5-1.1-2.1-1.6-3.3-1.8c-7.6-1.4-15.3-2.3-20,1.8c-2.7,2.4-3.9,6.2-4.8,9.6c-1.6,6.3-2.4,12.8-2.4,19.3&#10;&#9;&#9;C326,166.6,325.7,166.9,325.3,166.9z"/>
	<path class="st1_product-manager-37" d="M319.2,169.5L319.2,169.5c-0.4,0-0.7-0.4-0.7-0.7c0,0,0,0,0,0v-0.2c0.7-12.6,1.7-31.7-13.8-38.2&#10;&#9;&#9;c-4.2-1.8-8.8-2.3-12.8-2.8c-0.4,0-0.7-0.4-0.6-0.8c0-0.4,0.4-0.7,0.8-0.6c4.1,0.5,8.8,1.1,13.1,2.9c16.4,6.8,15.3,26.5,14.6,39.5&#10;&#9;&#9;v0.2C319.9,169.2,319.6,169.5,319.2,169.5C319.2,169.5,319.2,169.5,319.2,169.5z"/>
	<polygon class="st0_product-manager-37" points="382.7,229.1 276.2,208.6 276.2,150.2 382.7,170.6 &#9;"/>
	<path class="st1_product-manager-37" d="M382.7,229.8h-0.1L276,209.3c-0.3-0.1-0.6-0.4-0.6-0.7v-58.4c0-0.4,0.3-0.7,0.7-0.7c0,0,0.1,0,0.1,0L382.8,170&#10;&#9;&#9;c0.3,0.1,0.6,0.3,0.6,0.7v58.4C383.4,229.5,383.1,229.8,382.7,229.8L382.7,229.8z M276.9,208L382,228.2v-57l-105.1-20.1V208z"/>
	<path class="st0_product-manager-37" d="M363.3,186.7l-67.7-13c-2.6-0.6-4.5-2.8-4.6-5.5l0,0c-0.1-2.1,1.5-3.8,3.6-3.9c0.4,0,0.7,0,1.1,0.1l67.7,13&#10;&#9;&#9;c2.7,0.6,4.6,2.8,4.7,5.6l0,0c0.1,2.1-1.5,3.8-3.6,3.9C364,186.9,363.7,186.8,363.3,186.7z"/>
	<path class="st1_product-manager-37" d="M364.2,187.5c-0.3,0-0.7,0-1-0.1l0,0l-67.7-13c-3-0.6-5.1-3.2-5.2-6.2c0-1.4,0.5-2.7,1.6-3.5&#10;&#9;&#9;c1.1-0.9,2.5-1.2,3.9-0.9l67.7,13c3,0.6,5.1,3.2,5.2,6.2c0,1.4-0.5,2.7-1.6,3.6C366.3,187.2,365.3,187.5,364.2,187.5z M363.4,186.1&#10;&#9;&#9;c1,0.2,2,0,2.7-0.6c0.7-0.6,1.1-1.5,1.1-2.5c-0.1-2.4-1.8-4.4-4.1-4.9l-67.7-13c-1-0.2-2,0-2.7,0.6c-0.7,0.6-1.1,1.5-1.1,2.5&#10;&#9;&#9;c0.1,2.4,1.8,4.4,4.1,4.9L363.4,186.1z"/>
	<path class="st0_product-manager-37" d="M363.3,200.8l-67.7-13c-2.6-0.6-4.5-2.9-4.6-5.6l0,0c-0.1-2.1,1.5-3.8,3.6-3.9c0.4,0,0.7,0,1,0.1l67.7,13&#10;&#9;&#9;c2.6,0.5,4.6,2.8,4.7,5.5l0,0c0.1,2.1-1.5,3.8-3.5,3.9C364.1,200.9,363.7,200.9,363.3,200.8z"/>
	<path class="st1_product-manager-37" d="M364.2,201.6c-0.3,0-0.7,0-1-0.1l0,0l-67.7-13c-3-0.6-5.1-3.2-5.2-6.2c0-1.4,0.5-2.7,1.6-3.5&#10;&#9;&#9;c1.1-0.9,2.5-1.2,3.9-0.9l67.7,13c3,0.6,5.1,3.2,5.2,6.2c0,1.4-0.5,2.7-1.6,3.6C366.3,201.2,365.3,201.6,364.2,201.6z M363.4,200.1&#10;&#9;&#9;c1,0.2,2,0,2.7-0.6c0.7-0.6,1.1-1.5,1.1-2.5c-0.1-2.4-1.8-4.4-4.1-4.9l-67.7-13c-1-0.2-2,0-2.7,0.6c-0.7,0.6-1.1,1.5-1.1,2.5&#10;&#9;&#9;c0.1,2.4,1.8,4.4,4.1,4.9L363.4,200.1z"/>
	<path class="st0_product-manager-37" d="M363.3,214.8l-67.7-13c-2.6-0.6-4.5-2.9-4.6-5.6l0,0c-0.1-2.1,1.5-3.8,3.6-3.9c0.4,0,0.7,0,1.1,0.1l67.7,13&#10;&#9;&#9;c2.6,0.6,4.5,2.8,4.6,5.5l0,0c0.1,2.1-1.5,3.8-3.6,3.9C364,214.9,363.7,214.9,363.3,214.8z"/>
	<path class="st1_product-manager-37" d="M364.2,215.6c-0.3,0-0.7,0-1-0.1l0,0l-67.7-13c-3-0.6-5.1-3.2-5.2-6.2c0-1.4,0.5-2.7,1.6-3.5&#10;&#9;&#9;c1.1-0.9,2.5-1.2,3.9-0.9l67.7,13c3,0.6,5.1,3.2,5.2,6.2c0,1.4-0.5,2.7-1.6,3.6C366.3,215.3,365.3,215.6,364.2,215.6z M363.4,214.1&#10;&#9;&#9;c1,0.2,2,0,2.7-0.6c0.7-0.6,1.1-1.5,1.1-2.5c-0.1-2.4-1.8-4.4-4.1-4.9l-67.7-13c-1-0.2-2,0-2.7,0.6c-0.7,0.6-1.1,1.5-1.1,2.5&#10;&#9;&#9;c0.1,2.4,1.8,4.4,4.1,4.9L363.4,214.1z"/>
	<polygon class="st0_product-manager-37" points="406.8,276.6 344.1,264.6 344.1,233.7 406.8,245.7 &#9;"/>
	<path class="st1_product-manager-37" d="M406.8,277.3h-0.1l-62.7-12c-0.3-0.1-0.6-0.4-0.6-0.7v-30.9c0-0.2,0.1-0.4,0.2-0.5c0.2-0.1,0.4-0.2,0.6-0.1&#10;&#9;&#9;l62.7,12c0.3,0.1,0.6,0.4,0.6,0.7v30.9c0,0.2-0.1,0.4-0.3,0.5C407.1,277.3,407,277.3,406.8,277.3z M344.8,264l61.3,11.8v-29.5&#10;&#9;&#9;l-61.3-11.8V264z"/>
	<polygon class="st0_product-manager-37" points="291.9,142.9 245.8,134 245.8,108.5 291.9,117.4 &#9;"/>
	<path class="st1_product-manager-37" d="M291.9,143.6h-0.1l-46.1-8.9c-0.3-0.1-0.6-0.3-0.6-0.7v-25.5c0-0.4,0.3-0.7,0.7-0.7c0,0,0.1,0,0.1,0l46.1,8.8&#10;&#9;&#9;c0.3,0.1,0.6,0.4,0.6,0.7v25.5C292.6,143.2,292.3,143.5,291.9,143.6C291.9,143.6,291.9,143.6,291.9,143.6L291.9,143.6z&#10;&#9;&#9; M246.5,133.4l44.7,8.6v-24l-44.7-8.6L246.5,133.4z"/>
	<path class="st1_product-manager-37" d="M369.2,264H369l-18.7-3.6c-0.3-0.1-0.6-0.3-0.6-0.7v-18.7c0-0.2,0.1-0.4,0.2-0.5c0.2-0.1,0.4-0.2,0.6-0.1&#10;&#9;&#9;l18.7,3.6c0.3,0.1,0.6,0.3,0.6,0.7v18.7c0,0.2-0.1,0.4-0.3,0.5C369.5,264,369.3,264.1,369.2,264z M351.2,259.2l17.3,3.3v-17.3&#10;&#9;&#9;l-17.3-3.3V259.2z"/>
	<ellipse transform="matrix(0.7401 -0.6725 0.6725 0.7401 -74.9042 307.0637)" class="st0_product-manager-37" cx="359.8" cy="250.4" rx="4" ry="4.9"/>
	<path class="st1_product-manager-37" d="M360.6,255.6c-0.3,0-0.7,0-1-0.1c-2.8-0.6-4.9-3.1-5-5.9c0-1.3,0.5-2.5,1.5-3.4c1-0.8,2.4-1.2,3.7-0.9&#10;&#9;&#9;c2.8,0.6,4.9,3.1,5,5.9c0,1.3-0.5,2.5-1.5,3.4C362.6,255.3,361.6,255.6,360.6,255.6z M359,246.6c-1.5,0-2.8,1.2-2.9,2.7&#10;&#9;&#9;c0,0.1,0,0.1,0,0.2c0.1,2.2,1.7,4.1,3.8,4.6c0.9,0.2,1.8,0,2.6-0.6c0.7-0.6,1-1.4,1-2.3c-0.1-2.2-1.7-4.1-3.8-4.6&#10;&#9;&#9;C359.4,246.7,359.2,246.6,359,246.6L359,246.6z"/>
	<path class="st0_product-manager-37" d="M357.2,254.3l5.3,1c3.8,0.8,6.6,4.1,6.7,8l0,0l-18.7-3.6l0,0c-0.1-3,2.2-5.5,5.2-5.6&#10;&#9;&#9;C356.2,254.2,356.7,254.2,357.2,254.3z"/>
	<path class="st1_product-manager-37" d="M369.2,264H369l-18.7-3.6c-0.3-0.1-0.6-0.3-0.6-0.7c-0.1-1.9,0.7-3.7,2.2-4.9c1.5-1.2,3.5-1.7,5.4-1.2l5.3,1&#10;&#9;&#9;c4.1,0.9,7.1,4.5,7.3,8.7c0,0.2-0.1,0.4-0.3,0.5C369.5,264,369.3,264.1,369.2,264z M351.2,259.2l17.2,3.3c-0.5-3.2-2.9-5.8-6.1-6.5&#10;&#9;&#9;l-5.3-1l0,0c-1.5-0.3-3,0-4.2,0.9C351.8,256.8,351.3,257.9,351.2,259.2L351.2,259.2z"/>
	<path class="st1_product-manager-37" d="M286.2,137.6h-0.1l-35.4-6.8c-0.3-0.1-0.6-0.4-0.6-0.7v-16.4c0-0.2,0.1-0.4,0.3-0.5c0.2-0.1,0.4-0.2,0.6-0.2&#10;&#9;&#9;l35.4,6.8c0.3,0.1,0.6,0.4,0.6,0.7v16.3c0,0.2-0.1,0.4-0.2,0.5C286.6,137.5,286.4,137.6,286.2,137.6z M251.6,129.5l34,6.5v-14.9&#10;&#9;&#9;l-34-6.5V129.5z"/>
	<path class="st1_product-manager-37" d="M250.9,130.8c-0.3,0-0.6-0.2-0.7-0.5c-0.1-0.4,0.1-0.8,0.5-0.9l35.4-9.6c0.4-0.1,0.8,0.1,0.9,0.5c0,0,0,0,0,0&#10;&#9;&#9;c0.1,0.4-0.1,0.8-0.5,0.9l-35.4,9.6C251,130.8,250.9,130.8,250.9,130.8z"/>
	<path class="st1_product-manager-37" d="M286.2,137.6c-0.1,0-0.3,0-0.4-0.1l-35.4-23.1c-0.3-0.2-0.4-0.6-0.2-1s0.6-0.4,1-0.2l35.4,23.1&#10;&#9;&#9;c0.3,0.2,0.4,0.7,0.2,1c0,0,0,0,0,0C286.7,137.5,286.5,137.6,286.2,137.6z"/>
	<polygon class="st0_product-manager-37" points="399.6,162.1 351.3,152.8 351.3,115.6 399.6,124.9 &#9;"/>
	<path class="st1_product-manager-37" d="M399.6,162.8h-0.1l-48.3-9.3c-0.3-0.1-0.6-0.4-0.6-0.7v-37.3c0-0.2,0.1-0.4,0.2-0.5c0.2-0.1,0.4-0.2,0.6-0.2&#10;&#9;&#9;l48.3,9.3c0.3,0.1,0.6,0.3,0.6,0.7v37.3c0,0.2-0.1,0.4-0.3,0.5C399.9,162.8,399.8,162.8,399.6,162.8z M352,152.3l46.9,9v-35.8&#10;&#9;&#9;l-46.9-9V152.3z"/>
	<path class="st0_product-manager-37" d="M387.4,152.7l-24-4.6c-2.2-0.5-3.8-2.4-3.9-4.6l0,0c-0.1-1.7,1.3-3.1,3-3.2c0.3,0,0.6,0,0.9,0.1l24,4.6&#10;&#9;&#9;c2.2,0.5,3.8,2.4,3.9,4.6l0,0c0.1,1.7-1.3,3.1-3,3.2C388,152.8,387.7,152.8,387.4,152.7z"/>
	<path class="st1_product-manager-37" d="M388.2,153.5c-0.3,0-0.6,0-0.9-0.1l-24-4.6c-2.5-0.5-4.3-2.7-4.4-5.3c0-1.2,0.5-2.3,1.4-3&#10;&#9;&#9;c0.9-0.7,2.2-1,3.3-0.8l24,4.6c2.5,0.5,4.3,2.7,4.4,5.3c0.1,2.1-1.5,3.8-3.6,3.9C388.3,153.5,388.2,153.5,388.2,153.5L388.2,153.5z&#10;&#9;&#9; M362.7,141c-0.6,0-1.1,0.2-1.6,0.5c-0.6,0.5-0.9,1.2-0.9,1.9c0.1,1.9,1.4,3.5,3.3,3.9l24,4.6l0,0c0.8,0.2,1.6,0,2.2-0.5&#10;&#9;&#9;c0.6-0.5,0.9-1.2,0.9-1.9c-0.1-1.9-1.4-3.5-3.3-3.9l-24-4.6C363.1,141,362.9,141,362.7,141z"/>
	<line class="st2_product-manager-37" x1="378.3" y1="248.4" x2="397.4" y2="252"/>
	<path class="st1_product-manager-37" d="M397.4,252.7h-0.1l-19.1-3.7c-0.4-0.1-0.6-0.4-0.6-0.8s0.4-0.6,0.8-0.6l19.1,3.7c0.4,0.1,0.6,0.4,0.6,0.8&#10;&#9;&#9;c0,0,0,0,0,0C398,252.5,397.7,252.7,397.4,252.7z"/>
	<line class="st2_product-manager-37" x1="378.3" y1="255.7" x2="397.4" y2="259.4"/>
	<path class="st1_product-manager-37" d="M397.4,260.1h-0.1l-19.1-3.7c-0.4,0-0.7-0.4-0.6-0.8c0-0.4,0.4-0.7,0.8-0.6c0,0,0.1,0,0.1,0l19.1,3.7&#10;&#9;&#9;c0.4,0.1,0.6,0.4,0.6,0.8C398,259.9,397.7,260.1,397.4,260.1L397.4,260.1z"/>
	<line class="st2_product-manager-37" x1="378.3" y1="263.1" x2="397.4" y2="266.8"/>
	<path class="st1_product-manager-37" d="M397.4,267.5h-0.1l-19.1-3.7c-0.4-0.1-0.6-0.4-0.6-0.8s0.4-0.6,0.8-0.6l19.1,3.7c0.4,0.1,0.6,0.4,0.6,0.8&#10;&#9;&#9;C398,267.3,397.7,267.5,397.4,267.5L397.4,267.5z"/>
	<line class="st2_product-manager-37" x1="363.1" y1="125.1" x2="387.8" y2="129.8"/>
	<path class="st1_product-manager-37" d="M387.8,130.5h-0.1l-24.6-4.7c-0.4-0.1-0.6-0.4-0.6-0.8c0.1-0.4,0.4-0.6,0.8-0.6l0,0l24.6,4.7&#10;&#9;&#9;c0.4,0.1,0.6,0.4,0.6,0.8C388.4,130.3,388.1,130.5,387.8,130.5L387.8,130.5z"/>
	<polygon class="st0_product-manager-37" points="338.1,317.2 300.9,310.1 300.9,271.8 338.1,278.9 &#9;"/>
	<path class="st1_product-manager-37" d="M338.1,317.9h-0.1l-37.1-7.1c-0.3-0.1-0.6-0.3-0.6-0.7v-38.4c0-0.2,0.1-0.4,0.2-0.5c0.2-0.1,0.4-0.2,0.6-0.1&#10;&#9;&#9;l37.1,7.1c0.3,0.1,0.6,0.4,0.6,0.7v38.3C338.8,317.6,338.4,317.9,338.1,317.9L338.1,317.9z M301.6,309.5l35.7,6.9v-36.9l-35.7-6.9&#10;&#9;&#9;V309.5z"/>
	<line class="st2_product-manager-37" x1="307.2" y1="283.1" x2="331.8" y2="287.8"/>
	<path class="st1_product-manager-37" d="M331.8,288.5h-0.1l-24.5-4.7c-0.4-0.1-0.6-0.4-0.5-0.8c0.1-0.4,0.4-0.6,0.8-0.6c0,0,0,0,0,0l24.5,4.7&#10;&#9;&#9;c0.4,0.1,0.6,0.4,0.6,0.8c0,0,0,0,0,0C332.4,288.3,332.1,288.5,331.8,288.5z"/>
	<line class="st2_product-manager-37" x1="307.2" y1="292.1" x2="331.8" y2="296.8"/>
	<path class="st1_product-manager-37" d="M331.8,297.5h-0.1l-24.5-4.7c-0.4-0.1-0.6-0.5-0.5-0.9c0.1-0.3,0.4-0.6,0.8-0.5l24.5,4.7&#10;&#9;&#9;c0.4,0.1,0.6,0.5,0.5,0.8C332.3,297.3,332.1,297.5,331.8,297.5L331.8,297.5z"/>
	<line class="st2_product-manager-37" x1="307.2" y1="301.1" x2="324.6" y2="304.5"/>
	<path class="st1_product-manager-37" d="M324.6,305.2h-0.1l-17.4-3.3c-0.4-0.1-0.6-0.5-0.5-0.9c0.1-0.3,0.4-0.6,0.8-0.5l17.4,3.3&#10;&#9;&#9;c0.4,0.1,0.6,0.5,0.5,0.8C325.1,305,324.9,305.2,324.6,305.2L324.6,305.2z"/>
	<path class="st1_product-manager-37" d="M278.9,250h-0.1l-26.9-5.2c-0.4-0.1-0.6-0.4-0.6-0.8c0.1-0.4,0.4-0.6,0.8-0.6l26.9,5.2&#10;&#9;&#9;c0.4,0.1,0.6,0.4,0.6,0.8c0,0,0,0,0,0C279.5,249.8,279.2,250,278.9,250z"/>
	<path class="st1_product-manager-37" d="M278.9,259.4h-0.1l-26.9-5.2c-0.4-0.1-0.6-0.4-0.6-0.8c0.1-0.4,0.4-0.6,0.8-0.6l0,0L279,258&#10;&#9;&#9;c0.4,0.1,0.6,0.4,0.6,0.8c0,0,0,0,0,0C279.5,259.2,279.2,259.4,278.9,259.4z"/>
	<path class="st1_product-manager-37" d="M278.9,268.8h-0.1l-26.9-5.2c-0.4-0.1-0.6-0.4-0.6-0.8c0,0,0,0,0,0c0.1-0.4,0.4-0.6,0.8-0.6l26.9,5.2&#10;&#9;&#9;c0.4,0.1,0.6,0.4,0.6,0.8C279.5,268.6,279.2,268.8,278.9,268.8L278.9,268.8z"/>
	<path class="st1_product-manager-37" d="M278.9,278.2h-0.1l-26.9-5.2c-0.4,0-0.7-0.4-0.6-0.8c0-0.4,0.4-0.7,0.8-0.6c0,0,0.1,0,0.1,0l26.9,5.1&#10;&#9;&#9;c0.4,0.1,0.6,0.4,0.6,0.8C279.5,278,279.2,278.3,278.9,278.2L278.9,278.2z"/>
	<path class="st1_product-manager-37" d="M278.9,287.7h-0.1l-26.9-5.2c-0.4,0-0.7-0.4-0.6-0.8c0-0.4,0.4-0.7,0.8-0.6c0,0,0.1,0,0.1,0l26.9,5.2&#10;&#9;&#9;c0.4,0.1,0.6,0.5,0.5,0.8C279.4,287.4,279.2,287.6,278.9,287.7L278.9,287.7z"/>
	<path class="st1_product-manager-37" d="M268.6,295.1h-0.1l-16.6-3.2c-0.4-0.1-0.6-0.4-0.6-0.8c0.1-0.4,0.4-0.6,0.8-0.6l16.6,3.2&#10;&#9;&#9;c0.4,0.1,0.6,0.4,0.6,0.8c0,0,0,0,0,0C269.2,294.9,268.9,295.1,268.6,295.1z"/>
	<path class="st1_product-manager-37" d="M331.8,116.5h-0.1l-15.9-3c-0.4-0.1-0.6-0.4-0.6-0.8c0,0,0,0,0,0c0.1-0.4,0.4-0.6,0.8-0.6l15.9,3&#10;&#9;&#9;c0.4,0.1,0.6,0.4,0.6,0.8c0,0,0,0,0,0C332.4,116.3,332.1,116.5,331.8,116.5z"/>
	<path class="st1_product-manager-37" d="M331.8,122.4h-0.1l-15.9-3c-0.4-0.1-0.7-0.4-0.6-0.8c0.1-0.4,0.4-0.7,0.8-0.6l15.9,3c0.4,0.1,0.6,0.4,0.6,0.8&#10;&#9;&#9;C332.4,122.1,332.1,122.4,331.8,122.4L331.8,122.4z"/>
</g>
<g id="Floor_product-manager-37">
	<path class="st1_product-manager-37" d="M449.2,381.7h-0.1l-398.4-74c-0.4-0.1-0.6-0.4-0.6-0.8s0.4-0.6,0.8-0.6l398.4,74c0.4,0.1,0.6,0.4,0.6,0.8&#10;&#9;&#9;C449.8,381.5,449.5,381.7,449.2,381.7L449.2,381.7z"/>
</g>
<g id="Shadows_product-manager-37">
	
		<ellipse transform="matrix(0.1525 -0.9883 0.9883 0.1525 -66.9397 723.1484)" class="st1_product-manager-37" cx="388.2" cy="400.6" rx="7" ry="18.7"/>
	
		<ellipse transform="matrix(0.1884 -0.9821 0.9821 0.1884 -238.0774 463.6985)" class="st1_product-manager-37" cx="161.5" cy="375.9" rx="33.7" ry="112.2"/>
</g>
<g id="Chair_product-manager-37">
	<path class="st0_product-manager-37" d="M98.2,217.1c-21.3,15.5-24.1,47.7-24.6,72c-0.6,22.8,4.5,44.5,9.3,66.8c4.7,21.8,17.9,27.4,39,32.2&#10;&#9;&#9;c31.2,7.2,68.8,5.6,100.6,2.1s33.7-26.1,30.5-51.7c-0.9-7.1-5.9-11.5-11.3-15.4c-6.6-4.7-12.5-9.8-17.2-16.6&#10;&#9;&#9;c-15.1-21.9-15.9-47.8-26-71.6c-8-18.8-25.7-31.9-46.1-31.2S112.3,206.8,98.2,217.1z"/>
	<path class="st3_product-manager-37" d="M172.6,393.8c-19.5,0-36.4-1.7-51-5.1c-19.4-4.5-34.6-9.8-39.5-32.8l-1-4.7c-4.5-21.1-8.8-41-8.3-62.2&#10;&#9;&#9;c1.2-49.1,13.9-64.5,24.9-72.5l0,0c15-10.9,35.9-13,54.5-13.6c20-0.6,38.4,11.8,46.8,31.7c3.9,9.3,6.5,19.1,9,28.5&#10;&#9;&#9;c3.8,14.6,7.8,29.7,16.9,42.9c4,5.9,9.1,10.8,17,16.4c5.4,3.9,10.6,8.5,11.6,15.9c1.8,14.2,2.4,30.1-5.9,40.6&#10;&#9;&#9;c-5.3,6.7-13.5,10.6-25.2,11.9C205.9,392.7,189.3,393.7,172.6,393.8z M98.2,217.1l0.4,0.6c-20.4,14.8-23.7,46-24.3,71.4&#10;&#9;&#9;c-0.5,21.1,3.8,40.9,8.3,61.9l1,4.7c4.4,20.4,15.9,26.5,38.4,31.7c25.8,6,58.6,6.7,100.3,2c11.3-1.3,19.3-5,24.3-11.3&#10;&#9;&#9;c8-10.1,7.3-25.7,5.6-39.6c-0.9-6.8-5.8-11.2-11-14.9c-8-5.7-13.2-10.7-17.4-16.8c-9.2-13.5-13.3-28.7-17.1-43.4&#10;&#9;&#9;c-2.5-9.4-5-19.1-8.9-28.3c-8.2-19.3-26-31.5-45.5-30.8c-18.3,0.6-39,2.6-53.7,13.3L98.2,217.1z"/>
	<path class="st1_product-manager-37" d="M154,337.4c-3.8,0-7.6-0.2-11.3-0.6l0,0c-7.2-0.8-14.4-2.4-21.3-4.6c-9.5-3.1-15.8-6.6-20.6-11.3&#10;&#9;&#9;c-7.2-7.2-10-17-11.1-23.9c-2.4-16,0.1-33.7,1.8-42.8c2.3-12.7,10.1-23.6,21.3-30c7.7-4.4,16.8-7.3,27.9-8.8&#10;&#9;&#9;c11.7-1.5,20.1-0.3,26.4,3.9c10.4,6.9,13.3,20.1,15.5,33l3.6,21.9c0.9,5.5,2.1,12.9,6.4,16.5c1.5,1.2,3.1,2.1,4.9,2.9&#10;&#9;&#9;c3,1.5,6.1,3.1,7.8,6.5c2.2,4.2,3.1,11.4,0.9,16c-2.4,5.2-7.4,8.5-11,10.6C183.3,333.7,169.2,337.4,154,337.4z M149.5,216&#10;&#9;&#9;c-2.9,0-5.8,0.2-8.6,0.6c-10.9,1.4-19.9,4.2-27.4,8.6c-10.8,6.1-18.3,16.8-20.6,29c-1.7,9-4.1,26.5-1.8,42.3&#10;&#9;&#9;c1,6.7,3.7,16.2,10.7,23.2c4.6,4.6,10.8,8,20,11c6.8,2.2,13.9,3.7,21,4.6l0,0c19.3,2.2,37.2-1.2,51.7-9.8c3.4-2,8.1-5.2,10.4-10&#10;&#9;&#9;c2-4.3,1.2-10.9-0.8-14.8c-1.5-3-4.3-4.4-7.2-5.9c-1.8-0.8-3.5-1.9-5.1-3.1c-4.7-3.9-6-11.6-6.9-17.3l-3.6-21.9&#10;&#9;&#9;c-2.1-12.6-5-25.5-14.9-32C161.9,217.4,156.5,216,149.5,216z"/>
	<path class="st1_product-manager-37" d="M101.6,315.1c-0.3,0-0.5-0.2-0.7-0.4c-0.1-0.4,0-0.8,0.4-0.9c0,0,0,0,0,0c9.1-3.8,15.2-2.9,15.5-2.9&#10;&#9;&#9;c0.4,0.1,0.6,0.4,0.6,0.8c-0.1,0.4-0.4,0.6-0.8,0.6c0,0-6-0.9-14.7,2.8C101.7,315.1,101.7,315.1,101.6,315.1z"/>
</g>
<g id="Plant_product-manager-37">
	<path class="st1_product-manager-37" d="M394.2,317.9c-0.2-2.6,0.4-5.3,1.6-7.6c1-1.7,2.6-3,3.4-4.8c1.5-3.1,0.4-6.8,0.8-10.2c0.3-2.9,1.6-5.5,3.6-7.6&#10;&#9;&#9;c1.8-1.8,4.1-3,5.8-4.9c2.8-3.1,3.6-7.4,5.2-11.3c2.3-5.4,6.2-10,11.2-13.1c-3,6.1,3.9,13.9,0.7,20c-1,1.9-2.9,3.3-3.6,5.4&#10;&#9;&#9;c-1.8,4.9,4.1,10.3,2.2,15.1c-0.9,2.4-3.5,3.9-4.8,6.2c-1.6,3.1-0.4,6.9-0.5,10.4c-0.2,4.9-3.1,9.2-6.6,12.6&#10;&#9;&#9;c-2.2,2.1-4.6,3.9-7,5.8c-2.8,2.3-4,4.6-6.5,1C396.2,329.8,394.3,323.9,394.2,317.9z"/>
	<path class="st1_product-manager-37" d="M391,320.6c0.9-3.8,1.5-7.8,0-11.4c-1.7-4-6-6.9-6.5-11.2c-0.3-2.8,1.1-5.7,0.5-8.5s-2.9-4.7-4.8-6.8&#10;&#9;&#9;c-4.3-4.8-6.9-10.9-7.3-17.4c-2.7,3.6-5.5,7.3-7,11.5s-1.5,9.3,1,13c0.7,0.9,1.3,1.8,1.8,2.9c0.9,2.8-1.5,5.4-2.7,8&#10;&#9;&#9;c-1.5,3.1-1.2,6.7,0.9,9.4c2.5,3.1,7.3,4.3,8.5,8.1c0.3,1.4,0.4,2.8,0.4,4.3c0.5,5.1,4.1,9.4,9,10.8c2.9,0.7,2.9-0.5,3.4-2.9&#10;&#9;&#9;C389,327.2,390.2,324,391,320.6z"/>
	<path class="st1_product-manager-37" d="M400.4,293.6c2.1-7.2,2.9-14.8,5.1-21.9c1.9-5.6,4.2-11.1,6.8-16.4l-9,3.8c-2.9,1.2-6,2.6-7.3,5.4&#10;&#9;&#9;c-2.4,4.9,1.9,11.1-0.6,16c-0.9,1.7-2.4,2.9-3.5,4.5c-2.6,3.7-2.2,8.8-0.8,13.1c0.6,1.9,3.3,11.4,5.8,8.8c1-1.1,1-5,1.5-6.5&#10;&#9;&#9;C399,298.1,399.8,295.9,400.4,293.6z"/>
	<path class="st1_product-manager-37" d="M395.5,389.5c1.8-11.8,7.4-53.4,7.4-53.8l-1.5-0.2c0,0.4-5.6,42-7.4,53.8L395.5,389.5z"/>
	<path class="st1_product-manager-37" d="M393.4,400.6h1.6c-0.1-14-5.9-67.5-9.3-71.2l-1.1,1C386.7,332.9,393.3,381.5,393.4,400.6z"/>
	<path class="st1_product-manager-37" d="M390.4,398l1.5-0.1c-1.3-30.2,5.1-93.6,5.1-94.2l-1.5-0.2C395.4,304.1,389,367.7,390.4,398z"/>
	<path class="st0_product-manager-37" d="M410.8,361.1h-33.3l2.3,33.7c0.4,5.9,5.3,10.4,11.1,10.4h6.5c5.9,0,10.7-4.5,11.1-10.4L410.8,361.1z"/>
	<path class="st1_product-manager-37" d="M397.4,405.9H391c-6.2,0-11.3-4.8-11.8-11l-2.3-33.7c0-0.2,0-0.4,0.2-0.5c0.1-0.1,0.3-0.2,0.5-0.2h33.3&#10;&#9;&#9;c0.2,0,0.4,0.1,0.5,0.2c0.1,0.1,0.2,0.3,0.2,0.5l-2.3,33.7C408.8,401.1,403.6,405.9,397.4,405.9z M378.3,361.8l2.3,33&#10;&#9;&#9;c0.4,5.5,4.9,9.7,10.4,9.7h6.5c5.5,0,10-4.2,10.4-9.7l2.3-33H378.3z"/>
</g>
<g id="Character_product-manager-37">
	<path class="st0_product-manager-37" d="M181.4,196.5c0,0,37,8.5,43.9,7.1c9.2-1.8,18.4-8,26.6-12.4c8.5-4.6,16.9-9.5,25.3-14.2c5-2.8,10-5.5,15.1-8.2&#10;&#9;&#9;c0.5-0.3,1.1-0.5,1.7-0.7c0.5-0.1,1,0,1.5,0.2c1.4,0.4,2.5,1.4,3,2.7c0.8,2.2-1.4,4.2-2.9,5.5c-4.4,4.1-8.9,8-13.5,11.8l7.9-0.7&#10;&#9;&#9;c0.2,0,0.4,0,0.6,0.1c0.5,0.3,0.3,1.1-0.1,1.6c-1.5,1.5-3.3,2.7-5.3,3.3c-6.3,2.6-11.4,4.3-16.9,8.3c-4.8,3.5-9.7,7-14.7,10.2&#10;&#9;&#9;c-7.8,5-20.3,14.4-30.2,12.8l-46.1-7.8"/>
	<path class="st3_product-manager-37" d="M225.7,224.7c-0.9,0-1.7-0.1-2.5-0.2l-46.2-7.8l0.2-1.4l46.2,7.8c8.5,1.4,19-5.6,26.7-10.7&#10;&#9;&#9;c1.1-0.7,2.1-1.4,3-2c4.7-3,9.5-6.3,14.7-10.2c4.6-3.4,8.9-5.1,13.9-7.1c1-0.4,2-0.8,3.1-1.3c1.9-0.6,3.6-1.7,5-3.1&#10;&#9;&#9;c0.1-0.2,0.2-0.3,0.2-0.5c0,0-0.1,0-0.2,0l-7.9,0.7c-0.3,0-0.6-0.1-0.7-0.4c-0.1-0.3,0-0.6,0.2-0.8c4.6-3.8,9.1-7.7,13.5-11.8&#10;&#9;&#9;l0.1-0.1c1.3-1.2,3.2-2.9,2.6-4.7c-0.5-1.1-1.4-1.9-2.6-2.2c-0.4-0.1-0.8-0.2-1.2-0.1c-0.5,0.1-1,0.3-1.5,0.6l-4.8,2.6&#10;&#9;&#9;c-3.4,1.9-6.9,3.7-10.3,5.6c-2.9,1.6-5.7,3.2-8.5,4.8c-5.5,3.1-11.1,6.4-16.8,9.4c-1.8,0.9-3.6,2-5.4,3c-6.9,3.9-14,8-21.4,9.5&#10;&#9;&#9;c-6.9,1.4-42.7-6.8-44.2-7.1c-0.4-0.1-0.6-0.4-0.6-0.8s0.4-0.6,0.8-0.6c0,0,0.1,0,0.1,0c0.4,0.1,36.9,8.4,43.6,7.1&#10;&#9;&#9;c7.1-1.4,14.1-5.4,21-9.3c1.9-1,3.6-2.1,5.4-3c5.6-3,11.3-6.3,16.8-9.4c2.8-1.6,5.7-3.2,8.5-4.8c3.4-1.9,6.9-3.8,10.3-5.6l4.8-2.6&#10;&#9;&#9;c0.6-0.4,1.2-0.6,1.9-0.8c0.6-0.1,1.2,0,1.8,0.2c1.6,0.4,2.9,1.6,3.5,3.1c0.9,2.6-1.4,4.7-2.9,6.1l-0.1,0.1&#10;&#9;&#9;c-3.8,3.6-7.8,7.1-11.8,10.4l5.7-0.5c0.3-0.1,0.7,0,1,0.1c0.3,0.2,0.6,0.5,0.7,0.9c0.1,0.6-0.1,1.3-0.5,1.8&#10;&#9;&#9;c-1.5,1.6-3.4,2.8-5.6,3.5l-3.1,1.3c-4.9,2-9.1,3.7-13.6,6.9c-5.2,3.9-10.1,7.2-14.8,10.2l-3,2&#10;&#9;&#9;C243.7,218.3,234.1,224.7,225.7,224.7z"/>
	<path class="st0_product-manager-37" d="M234.2,362.9c0,0,7,36,8.9,37.9s32.2,0.5,31.8-2.9s-16.3-8-16.3-8l-4.9-29.7"/>
	<path class="st3_product-manager-37" d="M251.4,402.4c-4.5,0-8-0.3-8.8-1.1c-2-2-7.9-32.2-9.1-38.3c-0.1-0.4,0.2-0.7,0.5-0.8c0,0,0,0,0,0&#10;&#9;&#9;c0.4-0.1,0.7,0.2,0.8,0.5c2.7,13.7,7.4,36.1,8.7,37.6c1.5,1.1,19.7,0.9,27.9-1.2c2.5-0.6,2.7-1.1,2.7-1.1&#10;&#9;&#9;c-0.2-1.8-8.2-5.1-15.8-7.3c-0.3-0.1-0.5-0.3-0.5-0.6l-4.9-29.7c-0.1-0.4,0.2-0.7,0.6-0.8c0.4-0.1,0.7,0.2,0.8,0.6c0,0,0,0,0,0&#10;&#9;&#9;l4.8,29.3c4.3,1.2,16,5,16.4,8.4c0.1,0.7-0.4,1.3-1.4,1.8C270.8,401.3,259.6,402.4,251.4,402.4z"/>
	<path class="st0_product-manager-37" d="M169.9,378.7c0,0-4.4,32.3-2.1,33.3s33.2,2.4,32.8-0.3s-15.8-7.9-15.8-7.9l5.5-31.5"/>
	<path class="st3_product-manager-37" d="M188.3,413.9c-8.9,0-19.4-0.8-20.8-1.3c-2.3-0.9-0.3-19,1.7-34c0-0.4,0.3-0.7,0.7-0.7c0.4,0,0.7,0.3,0.7,0.7&#10;&#9;&#9;c0,0,0,0.1,0,0.1c-2,14.7-3.4,30.8-2.5,32.5c1.2,0.4,8.3,0.9,16,1.1c10.8,0.2,14.9-0.4,15.7-0.9c-0.8-1.5-8.4-4.9-15.3-7.2&#10;&#9;&#9;c-0.3-0.1-0.5-0.4-0.5-0.8l5.5-31.5c0.1-0.4,0.4-0.6,0.8-0.6c0,0,0,0,0,0c0.4,0.1,0.6,0.4,0.6,0.8c0,0,0,0,0,0l-5.4,30.9&#10;&#9;&#9;c4.2,1.5,15.2,5.5,15.7,8.2c0.1,0.4-0.1,0.8-0.4,1.1C199.6,413.6,194.3,413.9,188.3,413.9z M168.2,411.4L168.2,411.4z"/>
	<path class="st3_product-manager-37" d="M206.5,307.2c10.5-1.6,29,65.1,29,65.1l21.1-2.5c0,0-3.8-60.3-7.9-77.1c-2.8-11.6-15.4-17.2-28.1-13.5&#10;&#9;&#9;c-19.1-0.7-38.7-3.2-38.7-3.2L206.5,307.2z"/>
	<path class="st3_product-manager-37" d="M235.5,372.9c-0.3,0-0.6-0.2-0.7-0.5c-0.1-0.2-4.7-16.8-10.5-33.1c-10.1-28.2-15.4-31.8-17.7-31.5&#10;&#9;&#9;c-0.2,0-0.5-0.1-0.6-0.3l-24.6-31.2c-0.2-0.3-0.2-0.7,0.1-1c0.1-0.1,0.3-0.2,0.5-0.1c0.2,0,19.7,2.4,38.5,3.2&#10;&#9;&#9;c7-2,14.2-1.3,19.8,1.9c4.6,2.6,7.9,7,9.1,12.1c4,16.7,7.8,76.6,7.9,77.2c0,0.4-0.2,0.7-0.6,0.7L235.5,372.9L235.5,372.9z&#10;&#9;&#9; M206.8,306.5c10.6,0,26.6,56,29.1,65l19.9-2.3c-0.4-6.6-4-60.7-7.8-76.4c-1.1-4.8-4.2-8.8-8.4-11.2c-5.3-3.1-12.2-3.7-18.9-1.7&#10;&#9;&#9;c-0.1,0-0.1,0-0.2,0c-15.7-0.6-31.9-2.4-37-3L206.8,306.5L206.8,306.5z"/>
	<path class="st4_product-manager-37 targetColor" d="M157.3,191.5c0,0-32.7-1.8-38.5,6.4c-6.3,8.8-5.8,12.2-14.4,32.6c2.8,28.1,19.5,67.4,19.5,67.4l70.4-14.5&#10;&#9;&#9;c0,0-2.7-75.9-8.9-86.4S157.3,191.5,157.3,191.5z" style="fill: rgb(1, 69, 93);"/>
	<polygon class="st3_product-manager-37" points="145.8,197.2 165.5,300.6 185.7,300.2 170.9,198.4 &#9;"/>
	<path class="st3_product-manager-37" d="M165.5,301.3c-0.3,0-0.6-0.2-0.7-0.6l-19.7-103.3c0-0.2,0-0.4,0.2-0.6c0.1-0.2,0.3-0.3,0.6-0.2l25.1,1.1&#10;&#9;&#9;c0.3,0,0.6,0.3,0.7,0.6l14.8,101.8c0,0.2,0,0.4-0.2,0.6c-0.1,0.2-0.3,0.2-0.5,0.2L165.5,301.3L165.5,301.3z M146.6,198l19.4,101.9&#10;&#9;&#9;l18.8-0.4l-14.6-100.5L146.6,198z"/>
	<path class="st3_product-manager-37" d="M132.1,286.4c0,0-18.7,19.8-5.7,35.4s49.9-0.8,49.9-0.8l-9.2,61.3l27.1-0.3c0,0,28.2-83.5,24.9-92.1&#10;&#9;&#9;s-26.3-12.6-26.3-12.6L132.1,286.4z"/>
	<path class="st3_product-manager-37" d="M167,383.1c-0.2,0-0.4-0.1-0.5-0.2c-0.1-0.2-0.2-0.4-0.2-0.6l9-60.1c-6.2,2.5-12.5,4.5-19,5.8&#10;&#9;&#9;c-14.5,2.9-25,0.9-30.5-5.7c-13.2-16,5.6-36.1,5.8-36.4c0.1-0.1,0.2-0.2,0.4-0.2l60.6-9.1c0.1,0,0.2,0,0.2,0&#10;&#9;&#9;c1,0.2,23.5,4.1,26.9,13.1s-23.8,89.2-24.9,92.6c-0.1,0.3-0.4,0.5-0.7,0.5L167,383.1L167,383.1z M176.2,320.3&#10;&#9;&#9;c0.2,0,0.3,0.1,0.4,0.1c0.2,0.2,0.3,0.4,0.3,0.7l-9.1,60.5l25.7-0.3c9.8-28.9,27.3-84.6,24.8-91.2c-3-7.9-24-11.8-25.7-12.1&#10;&#9;&#9;l-60.2,9c-1.8,2-17.3,20.1-5.6,34.3c12.5,15.1,48.7-0.8,49.1-1C176,320.3,176.1,320.3,176.2,320.3L176.2,320.3z"/>
	<path class="st0_product-manager-37" d="M139.1,126.9c-9.3-4.8-20.6-3.1-27.9,4.3c-5.4,5.6-7.5,14.2-4.7,21.4s10.8,11.6,18.5,11&#10;&#9;&#9;c7.5-0.6,14.4-8,17.6-14.3C146.4,141.7,148.3,131.6,139.1,126.9z"/>
	<path class="st3_product-manager-37" d="M123.5,164.4c-7.7,0.1-14.6-4.5-17.6-11.5c-2.8-7.2-0.9-16.3,4.8-22.2c7.5-7.7,19.2-9.5,28.7-4.5&#10;&#9;&#9;c3.7,1.9,11.5,7.9,3.8,23.4c-3.3,6.6-10.4,14.1-18.2,14.7C124.6,164.4,124,164.4,123.5,164.4z M128,124.9c-6.1,0-12,2.5-16.2,6.8&#10;&#9;&#9;c-5.3,5.5-7.2,14-4.5,20.7c2.7,6.9,10.1,11.2,17.8,10.6c6.9-0.6,13.8-7.4,17-13.9c2.4-4.8,6.9-16.4-3.2-21.5l0,0&#10;&#9;&#9;C135.5,125.8,131.8,124.9,128,124.9z"/>
	<path class="st3_product-manager-37" d="M125.9,141.1c-4.8,5.5-6.4,13.1-4.2,20c0.5,1.9,1.6,3.6,3.2,4.8c3.2,1.9,7.3,0,10.1-2.4&#10;&#9;&#9;c4.5-4.1,8-9.2,10.1-14.9c1.7-4,3.8-12.9-2.3-14.2C136.9,133.1,129.7,136.9,125.9,141.1z"/>
	<path class="st3_product-manager-37" d="M127.8,167.4c-1.1,0-2.3-0.3-3.3-0.9c-1.8-1.2-3-3.1-3.5-5.1c-2.2-7.2-0.6-15,4.4-20.7l0,0&#10;&#9;&#9;c3.9-4.4,11.4-8.3,17.6-7c1.6,0.3,3,1.3,3.7,2.8c2.3,4.3-0.6,11.6-0.9,12.4c-2.2,5.8-5.8,11-10.3,15.2&#10;&#9;&#9;C133.3,165.8,130.5,167.4,127.8,167.4z M140.4,134.8c-5.1,0-10.8,3.2-14,6.8l0,0c-4.6,5.3-6.2,12.6-4.1,19.3&#10;&#9;&#9;c0.4,1.8,1.4,3.3,2.9,4.4c2.8,1.8,6.7-0.1,9.3-2.4c4.4-4,7.9-9.1,10-14.7c1.1-2.7,2.6-8.1,1-11.2c-0.6-1.1-1.6-1.8-2.8-2&#10;&#9;&#9;C142,134.9,141.2,134.8,140.4,134.8L140.4,134.8z M125.9,141.1L125.9,141.1z"/>
	<path class="st0_product-manager-37" d="M161.8,182.9c-1.2,1.2-2.2,2.9-3.6,4c-5.2,4.1-12.1,5.2-18.4,2.9c-14.6-5.2-16.4-21.2-15.3-34.5&#10;&#9;&#9;c0.4-5.4,2.8-16.9,10.7-12.4c-2.3-1.3,5.6-7.8,6.8-8.5c8.6-4.9,18.9-1,25.2,5.8c3.3,3.6,7.3,8.2,9.7,12.5c2.8,5,1.5,12.6-0.9,17.5&#10;&#9;&#9;c-1.9,3.8-4.8,7-8.3,9.3c-1.6,1.1-3.9,1.6-5.4,2.8C162.2,182.5,162,182.7,161.8,182.9z"/>
	<path class="st3_product-manager-37" d="M146.5,191.7c-2.3,0-4.6-0.4-6.8-1.2c-12-4.3-17.3-16.1-15.7-35.2c0.2-2.6,1.2-11.2,5.7-13.5&#10;&#9;&#9;c1.5-0.7,3.2-0.8,4.6-0.1c0.8-2.8,6.7-7.4,7.4-7.8c9.2-5.3,20-0.6,26.1,5.9c3.7,3.8,7,8.1,9.8,12.6c2.9,5.2,1.6,13-0.9,18.1&#10;&#9;&#9;c-1.9,3.9-4.9,7.2-8.6,9.6c-0.8,0.5-1.6,0.9-2.5,1.2c-1,0.4-2,0.9-2.8,1.5c-0.2,0.2-0.4,0.3-0.6,0.5c-0.5,0.5-0.9,1-1.4,1.6&#10;&#9;&#9;c-0.7,0.9-1.4,1.7-2.2,2.4C155.2,190.2,150.9,191.7,146.5,191.7z M132,142.6c-0.6,0-1.2,0.1-1.7,0.4c-3.1,1.6-4.6,7.7-5,12.4&#10;&#9;&#9;c-1.5,18.4,3.5,29.7,14.8,33.8c6,2.2,12.7,1.1,17.7-2.8c0.7-0.7,1.4-1.4,2-2.2c0.5-0.6,0.9-1.2,1.4-1.7l0,0&#10;&#9;&#9;c0.2-0.2,0.4-0.4,0.7-0.6c1-0.7,2-1.3,3.2-1.7c0.8-0.3,1.5-0.7,2.3-1.1c3.5-2.2,6.2-5.3,8.1-9c2.3-4.8,3.6-12,0.9-16.8&#10;&#9;&#9;c-2.7-4.5-6-8.6-9.6-12.4c-5.7-6.1-15.8-10.5-24.3-5.7c-1.2,0.7-6.8,5.5-6.8,7.1v0.1l0.1,0.1c0.3,0.2,0.5,0.6,0.3,0.9&#10;&#9;&#9;c0,0,0,0,0,0.1c-0.2,0.3-0.6,0.5-0.9,0.3c0,0,0,0-0.1,0l0,0C134,143,133,142.7,132,142.6z"/>
	<path class="st0_product-manager-37" d="M167.9,151c0,0,6.9,10.9,6.8,20.4c0.1,5.4-3,10.3-7.9,12.6l3.6,16c0,0,1.9,8.1-8.4,9.1c-6.1,0.6-12-2-15.6-6.9&#10;&#9;&#9;l-7.7-29.1c0,0,9.9-9.1,6.6-19.4C145.2,153.7,160.2,157.2,167.9,151z"/>
	<path class="st3_product-manager-37" d="M160.2,209.8c-5.7,0-11-2.7-14.4-7.3c0-0.1-0.1-0.1-0.1-0.2l-7.7-29.1c-0.1-0.2,0-0.5,0.2-0.7&#10;&#9;&#9;c0.1-0.1,9.5-8.9,6.4-18.6c-0.1-0.4,0.1-0.8,0.4-0.9c0.1,0,0.3,0,0.4,0c0.1,0,14.7,3.4,22-2.5c0.2-0.1,0.4-0.2,0.6-0.1&#10;&#9;&#9;c0.2,0,0.4,0.1,0.5,0.3c0.3,0.4,7,11.2,6.9,20.8c0.1,5.5-2.9,10.5-7.8,13l3.4,15.4c0.4,2.2,0,4.4-1.3,6.3c-1.5,2.1-4.1,3.3-7.7,3.7&#10;&#9;&#9;C161.5,209.8,160.9,209.8,160.2,209.8z M147,201.8c3.6,4.6,9.2,7,15,6.5c3.2-0.3,5.5-1.4,6.7-3.1c1-1.5,1.3-3.4,1-5.2l-3.6-16&#10;&#9;&#9;c-0.1-0.3,0.1-0.7,0.4-0.8c4.6-2.1,7.5-6.8,7.4-11.9c0-7.9-4.9-16.9-6.3-19.4c-6.8,4.8-17.9,3.2-21.4,2.6c2.2,9.2-5.1,17-6.8,18.7&#10;&#9;&#9;L147,201.8z"/>
	<path class="st0_product-manager-37" d="M143.8,169.8c0,0-7.4-10-11.4-1.8s5.8,14.1,10.6,12.3"/>
	<path class="st3_product-manager-37" d="M141,181.3c-3-0.1-5.9-1.5-7.9-3.7c-2.6-2.7-3.1-6.7-1.3-9.9c1.1-2.2,2.5-3.5,4.3-3.6c4-0.4,8.1,5,8.3,5.3&#10;&#9;&#9;c0.2,0.3,0.2,0.7-0.1,1c0,0,0,0,0,0c-0.3,0.2-0.7,0.2-1-0.1c0,0,0,0,0,0c-1-1.4-4.3-5-7-4.7c-1.3,0.1-2.3,1.1-3.2,2.8&#10;&#9;&#9;c-1.5,2.7-1,6.1,1.1,8.4c2.3,2.6,6.2,3.9,8.6,3c0.4-0.2,0.8,0,0.9,0.3c0.2,0.4,0,0.8-0.3,0.9c0,0-0.1,0-0.1,0&#10;&#9;&#9;C142.5,181.2,141.7,181.4,141,181.3z"/>
	<path class="st3_product-manager-37" d="M163.8,174.1h-0.4c-0.4,0-0.7-0.3-0.7-0.7c0,0,0,0,0,0c0-0.4,0.3-0.7,0.7-0.7c0,0,0,0,0,0c0.9,0,3.5-0.1,4.6-1&#10;&#9;&#9;c0.1-0.7-2.9-4-6.4-7c-0.3-0.2-0.4-0.7-0.1-1c0.2-0.3,0.7-0.4,1-0.1c0,0,0,0,0.1,0.1c1.6,1.4,6.8,6,6.8,8.1c0,0.4-0.2,0.8-0.5,1&#10;&#9;&#9;C167.5,174,164.8,174.1,163.8,174.1z"/>
	<path class="st3_product-manager-37" d="M161.5,179.9h-0.1c-2.9,0-5.7-1.2-7.9-3.1c-0.2-0.3-0.2-0.7,0.1-1c0,0,0,0,0,0c0.3-0.2,0.8-0.2,1,0.1&#10;&#9;&#9;c0,0,0,0,0,0c1.9,1.6,4.4,2.5,6.9,2.6h0.1c3.3,0,6.2-1.7,8.9-5.1c0.3-0.3,0.7-0.3,1,0c0.3,0.2,0.3,0.6,0.1,0.9&#10;&#9;&#9;C168.6,178,165.2,179.9,161.5,179.9z"/>
	<path class="st3_product-manager-37" d="M166.9,184c0,0-8.3,3-13.5,2.8c0,0,8.1,11.4,16.2,9.5L166.9,184z"/>
	<path class="st3_product-manager-37" d="M167.8,197.2c-7.7,0-14.6-9.6-15-10c-0.1-0.2-0.1-0.5,0-0.7c0.1-0.2,0.4-0.4,0.6-0.4c5,0.1,13.1-2.7,13.2-2.8&#10;&#9;&#9;c0.2-0.1,0.4-0.1,0.6,0.1c0.2,0.1,0.3,0.3,0.4,0.4l2.8,12.3c0.1,0.4-0.1,0.7-0.5,0.8c0,0,0,0,0,0&#10;&#9;&#9;C169.1,197.1,168.5,197.2,167.8,197.2z M154.8,187.5c2.2,2.6,8.1,9.1,14,8.3l-2.4-10.8C162.6,186.2,158.7,187.1,154.8,187.5&#10;&#9;&#9;L154.8,187.5z"/>
	
		<ellipse transform="matrix(0.9628 -0.2703 0.2703 0.9628 -38.4375 48.2956)" class="st3_product-manager-37" cx="156.2" cy="163.7" rx="1.3" ry="2.2"/>
	
		<ellipse transform="matrix(0.9628 -0.2703 0.2703 0.9628 -37.1489 51.2551)" class="st3_product-manager-37" cx="167.5" cy="160.5" rx="1.3" ry="2.2"/>
	<polygon class="st0_product-manager-37" points="172.8,280.3 186.8,235.1 251.9,235.1 236.3,280.3 &#9;"/>
	<path class="st3_product-manager-37" d="M236.3,281h-63.5c-0.4,0-0.7-0.3-0.7-0.7c0-0.1,0-0.2,0-0.2l14-45.2c0.1-0.3,0.4-0.5,0.7-0.5h65.1&#10;&#9;&#9;c0.2,0,0.4,0.1,0.6,0.3c0.1,0.2,0.2,0.4,0.1,0.6L237,280.5C236.9,280.8,236.6,281,236.3,281z M173.8,279.6h62.1l15.1-43.8h-63.6&#10;&#9;&#9;L173.8,279.6z"/>
	<path class="st0_product-manager-37" d="M107.1,223.8c0,0-23.9,53.8-12.6,66s71.4-11.7,71.4-11.7c10.3-2,21.4-5.7,24.3-17.3c0.4-1.5,0.4-3.4-0.9-4.2&#10;&#9;&#9;c-0.7-0.4-1.5-0.5-2.3-0.4c-2.6,0.1-5.2,0.7-7.6,1.6l0.1-4.7c-5.7,4.8-12.4,10.1-19.9,11.4c-4.9,0.8-10.1,0.9-15.1,1.3&#10;&#9;&#9;c-8.7,0.7-17.3,1.3-26,1.9c-13,0.9,5.7-20.8,9.9-32.6"/>
	<path class="st3_product-manager-37" d="M106.7,294c-5.7,0-10.2-1-12.7-3.7c-11.5-12.5,11.4-64.6,12.4-66.8c0.2-0.4,0.6-0.5,0.9-0.4&#10;&#9;&#9;c0.4,0.2,0.5,0.6,0.4,0.9c-0.2,0.5-23.6,53.5-12.7,65.3c4.4,4.8,18,4.3,39.2-1.5c16.2-4.4,31.2-10.4,31.4-10.5&#10;&#9;&#9;c10.3-2.1,21.1-5.6,23.9-16.8c0.2-0.6,0.6-2.7-0.6-3.4c-0.6-0.3-1.2-0.4-1.9-0.3c-2.5,0.1-5,0.6-7.4,1.5c-0.2,0.1-0.5,0-0.6-0.1&#10;&#9;&#9;c-0.2-0.1-0.3-0.4-0.3-0.6l0.1-3.1c-5.6,4.6-12,9.4-19.1,10.6c-3.6,0.5-7.1,0.9-10.7,1c-1.5,0.1-2.9,0.2-4.4,0.3&#10;&#9;&#9;c-8,0.6-16.6,1.2-26,1.9c-0.4,0-0.7-0.3-0.8-0.6c0-0.1,0-0.2,0-0.2c0.1-0.2,5.8-21,9.9-32.7c0.1-0.4,0.6-0.5,0.9-0.4&#10;&#9;&#9;c0.3,0.1,0.5,0.5,0.4,0.8c-3.6,10.2-8.4,27.4-9.6,31.6c9.1-0.6,17.3-1.2,25-1.8c1.5-0.1,2.9-0.2,4.4-0.3c3.5-0.1,7.1-0.5,10.6-1&#10;&#9;&#9;c7.2-1.2,13.9-6.5,19.6-11.2c0.3-0.2,0.7-0.2,1,0.1c0.1,0.1,0.2,0.3,0.2,0.5v3.7c2.2-0.7,4.5-1.2,6.8-1.3c0.9-0.1,1.9,0.1,2.7,0.5&#10;&#9;&#9;c1.3,0.9,1.8,2.7,1.2,5c-3,11.9-14.2,15.7-24.8,17.8C164.2,279.5,127.7,294,106.7,294z"/>
	<path class="st3_product-manager-37" d="M166.1,405.9c0,0,16.1,2.3,17.8,2.3l8.3-4.4c0,0,17,7.1,14.6,9.4s-37.7,2.8-40.7,1.1S166.1,405.9,166.1,405.9z&#10;&#9;&#9;"/>
	<path class="st3_product-manager-37" d="M181.8,416c-7.9,0-14.9-0.4-16.1-1c-3.4-1.9-0.6-8.6-0.3-9.4c0.1-0.3,0.4-0.5,0.7-0.4&#10;&#9;&#9;c4.3,0.6,15.6,2.2,17.5,2.3l8.2-4.3c0.2-0.1,0.4-0.1,0.6,0c3.4,1.4,14.7,6.3,15.2,9.2c0.1,0.5-0.1,1-0.4,1.3&#10;&#9;&#9;C205.5,415.3,192.8,416,181.8,416z M166.5,406.7c-0.8,2-1.9,6.1-0.1,7.1c3.2,1.7,37.9,0.8,39.9-1c0.1-1.1-6.5-4.9-14.1-8.1l-8,4.2&#10;&#9;&#9;c-0.1,0.1-0.2,0.1-0.3,0.1C182.3,408.9,169.4,407,166.5,406.7L166.5,406.7z"/>
	<path class="st3_product-manager-37" d="M240.4,393.1c0,0,16.1,2.3,17.8,2.3l8.3-4.4c0,0,17,7.1,14.6,9.4s-37.7,2.7-40.7,1.1S240.4,393.1,240.4,393.1z&#10;&#9;&#9;"/>
	<path class="st3_product-manager-37" d="M256.1,403.2c-7.9,0-14.9-0.4-16.1-1c-3.4-1.9-0.6-8.6-0.3-9.4c0.1-0.3,0.4-0.5,0.7-0.4&#10;&#9;&#9;c4.3,0.6,15.6,2.2,17.5,2.3l8.2-4.3c0.2-0.1,0.4-0.1,0.6,0c3.4,1.4,14.7,6.3,15.2,9.2c0.1,0.5-0.1,1-0.4,1.3&#10;&#9;&#9;C279.9,402.5,267.1,403.2,256.1,403.2z M240.8,393.9c-0.8,2-1.9,6.1-0.1,7.1c3.2,1.7,37.9,0.8,39.9-1c0.1-1.1-6.5-4.9-14.1-8.1&#10;&#9;&#9;l-8,4.2c-0.1,0.1-0.2,0.1-0.3,0.1C256.6,396.1,243.7,394.3,240.8,393.9z"/>
	<polygon class="st4_product-manager-37 targetColor" points="176.4,191.1 207.9,198.5 206.7,225.3 179.6,225.3 &#9;" style="fill: rgb(1, 69, 93);"/>
	<path class="st3_product-manager-37" d="M191.2,232.8c-0.3,0-0.6-0.3-0.7-0.6l-4.4-31.6c-0.1-0.4,0.2-0.7,0.6-0.8c0.4-0.1,0.7,0.2,0.8,0.6l4.4,31.6&#10;&#9;&#9;c0.1,0.4-0.2,0.7-0.6,0.8C191.3,232.8,191.3,232.8,191.2,232.8L191.2,232.8z"/>
	<path class="st3_product-manager-37" d="M128.5,235.8c-0.1,0-0.2,0-0.2,0c-0.4-0.1-0.5-0.5-0.4-0.9l6.5-18.2c0.1-0.4,0.5-0.6,0.9-0.4&#10;&#9;&#9;c0.4,0.1,0.5,0.5,0.4,0.9l-6.5,18.2C129.1,235.7,128.8,235.8,128.5,235.8z"/>
	<path class="st0_product-manager-37" d="M214.6,315.9c-0.1,0-0.2,0-0.2,0c-0.4-0.1-0.5-0.5-0.4-0.9c0.1-0.2,7.4-21.8,2.9-27.7&#10;&#9;&#9;c-3-3.9-13.4-6.2-13.5-6.3c-0.4-0.1-0.6-0.5-0.5-0.8c0.1-0.4,0.5-0.6,0.8-0.5c0,0,0,0,0,0c0.4,0.1,11.1,2.5,14.3,6.8&#10;&#9;&#9;c4.9,6.5-2.4,28.1-2.7,29C215.2,315.7,214.9,315.9,214.6,315.9z"/>
</g>
</svg>